<?xml version="1.0" encoding="UTF-8" standalone="no"?>
<!-- Generator: Adobe Illustrator 16.0.0, SVG Export Plug-In . SVG Version: 6.00 Build 0)  -->

<svg
   xmlns:dc="http://purl.org/dc/elements/1.1/"
   xmlns:cc="http://creativecommons.org/ns#"
   xmlns:rdf="http://www.w3.org/1999/02/22-rdf-syntax-ns#"
   xmlns:svg="http://www.w3.org/2000/svg"
   xmlns="http://www.w3.org/2000/svg"
   xmlns:sodipodi="http://sodipodi.sourceforge.net/DTD/sodipodi-0.dtd"
   xmlns:inkscape="http://www.inkscape.org/namespaces/inkscape"
   version="1.1"
   id="Capa_1"
   x="0px"
   y="0px"
   width="556.9245"
   height="556"
   viewBox="0 0 665.70752 664.60135"
   xml:space="preserve"
   sodipodi:docname="paper-plane.svg"
   inkscape:version="0.92.0 r15299"><metadata
     id="metadata41"><rdf:RDF><cc:Work
         rdf:about=""><dc:format>image/svg+xml</dc:format><dc:type
           rdf:resource="http://purl.org/dc/dcmitype/StillImage" /><dc:title></dc:title></cc:Work></rdf:RDF></metadata><defs
     id="defs39" /><sodipodi:namedview
     pagecolor="#ffffff"
     bordercolor="#666666"
     borderopacity="1"
     objecttolerance="10"
     gridtolerance="10"
     guidetolerance="10"
     inkscape:pageopacity="0"
     inkscape:pageshadow="2"
     inkscape:window-width="1729"
     inkscape:window-height="987"
     id="namedview37"
     showgrid="false"
     fit-margin-top="0"
     fit-margin-left="0"
     fit-margin-right="0"
     fit-margin-bottom="0"
     inkscape:zoom="0.4609375"
     inkscape:cx="-122.58465"
     inkscape:cy="176.029"
     inkscape:window-x="0"
     inkscape:window-y="0"
     inkscape:window-maximized="0"
     inkscape:current-layer="Capa_1" /><g
     id="g4"
     style="fill:#ffffff"
     transform="rotate(23,300.89995,293.22378)"><path
       d="m 612.008,89.517 c -0.071,-2.462 -0.762,-4.587 -1.931,-6.749 -0.354,-0.691 -0.071,-1.541 -0.585,-2.196 -0.248,-0.266 -0.584,-0.23 -0.832,-0.443 -0.283,-0.354 -0.283,-0.797 -0.514,-1.081 -2.285,-2.25 -5.084,-3.614 -8.06,-4.145 -0.319,-0.036 -0.479,0.124 -0.762,0.071 -2.692,-0.336 -5.509,-0.177 -8.024,0.939 L 9.024,331.306 c -5.916,2.604 -9.547,8.732 -8.963,15.198 0.514,6.465 5.154,11.868 11.514,13.409 l 131.717,31.919 64.034,136.624 c 0.443,0.886 1.275,1.329 1.877,2.091 0.284,0.478 0.106,1.08 0.514,1.505 0.584,0.744 1.523,1.099 2.285,1.665 0.584,0.496 1.098,0.992 1.877,1.364 2.285,1.258 4.641,2.108 7.192,2.108 0.584,0 1.098,-0.036 1.701,-0.106 2.869,-0.319 5.296,-1.683 7.439,-3.348 0.248,-0.213 0.655,-0.106 0.939,-0.337 l 100.913,-89.028 99.851,32.753 c 7.439,2.32 15.57,-1.223 18.688,-8.396 L 611.37,95.787 c 0.319,-0.903 0.071,-1.895 0.248,-2.852 0.32,-1.204 0.39,-2.178 0.39,-3.418 z M 237.581,389.335 c -0.283,0.194 -0.177,0.566 -0.443,0.779 -2.001,2.055 -3.702,4.429 -4.322,7.333 L 215.829,475.086 173.352,384.322 435.493,213.457 Z M 434.873,177.624 151.193,362.5 62.342,340.996 Z m -189.09,302.44 13.037,-59.73 39.82,13.056 z M 428.266,444 277.419,394.49 556.529,146.43 Z"
       id="path2"
       style="fill:#ffffff"
       inkscape:connector-curvature="0" /></g><g
     id="g6"
     transform="translate(-7.7897736,148.18604)" /><g
     id="g8"
     transform="translate(-7.7897736,148.18604)" /><g
     id="g10"
     transform="translate(-7.7897736,148.18604)" /><g
     id="g12"
     transform="translate(-7.7897736,148.18604)" /><g
     id="g14"
     transform="translate(-7.7897736,148.18604)" /><g
     id="g16"
     transform="translate(-7.7897736,148.18604)" /><g
     id="g18"
     transform="translate(-7.7897736,148.18604)" /><g
     id="g20"
     transform="translate(-7.7897736,148.18604)" /><g
     id="g22"
     transform="translate(-7.7897736,148.18604)" /><g
     id="g24"
     transform="translate(-7.7897736,148.18604)" /><g
     id="g26"
     transform="translate(-7.7897736,148.18604)" /><g
     id="g28"
     transform="translate(-7.7897736,148.18604)" /><g
     id="g30"
     transform="translate(-7.7897736,148.18604)" /><g
     id="g32"
     transform="translate(-7.7897736,148.18604)" /><g
     id="g34"
     transform="translate(-7.7897736,148.18604)" /></svg>